REM DIRINDEX 1\5,1\2\6,1\2\7,1\3\8,1\3\9,1\4\10,1\4\11,1\4\12
REM DIRNAME cjc026,folder01,folder02,folder03,folder04,folder05,folder06,folder07,folder08,folder09,folder10,folder11
TITLE ""
FILE "EJE_DB3000_5th_1A_21.mp3" MP3
  TRACK 01 AUDIO
    TITLE "0:"
    INDEX 01 00:00:00
  TRACK 02 AUDIO
    TITLE "10:cjc026_07434"
    INDEX 01 00:00:08
  TRACK 03 AUDIO
    TITLE "0:"
    INDEX 01 00:01:22
  TRACK 04 AUDIO
    TITLE "11:cjc026_07435"
    INDEX 01 00:01:57
  TRACK 05 AUDIO
    TITLE "0:"
    INDEX 01 00:02:66
  TRACK 06 AUDIO
    TITLE "12:cjc026_07436"
    INDEX 01 00:03:26
  TRACK 07 AUDIO
    TITLE "0:"
    INDEX 01 00:04:42
  TRACK 08 AUDIO
    TITLE "10:cjc026_07437"
    INDEX 01 00:05:03
  TRACK 09 AUDIO
    TITLE "0:"
    INDEX 01 00:06:17
  TRACK 10 AUDIO
    TITLE "11:cjc026_07438"
    INDEX 01 00:06:54
  TRACK 11 AUDIO
    TITLE "0:"
    INDEX 01 00:07:60
  TRACK 12 AUDIO
    TITLE "12:cjc026_07439"
    INDEX 01 00:08:20
  TRACK 13 AUDIO
    TITLE "0:"
    INDEX 01 00:09:35
  TRACK 14 AUDIO
    TITLE "10:cjc026_07440"
    INDEX 01 00:09:72
  TRACK 15 AUDIO
    TITLE "0:"
    INDEX 01 00:11:25
  TRACK 16 AUDIO
    TITLE "11:cjc026_07441"
    INDEX 01 00:11:60
  TRACK 17 AUDIO
    TITLE "0:"
    INDEX 01 00:13:18
  TRACK 18 AUDIO
    TITLE "12:cjc026_07442"
    INDEX 01 00:13:53
  TRACK 19 AUDIO
    TITLE "0:"
    INDEX 01 00:15:06
  TRACK 20 AUDIO
    TITLE "10:cjc026_07443"
    INDEX 01 00:15:44
  TRACK 21 AUDIO
    TITLE "0:"
    INDEX 01 00:16:58
  TRACK 22 AUDIO
    TITLE "11:cjc026_07444"
    INDEX 01 00:17:23
  TRACK 23 AUDIO
    TITLE "0:"
    INDEX 01 00:19:00
  TRACK 24 AUDIO
    TITLE "12:cjc026_07445"
    INDEX 01 00:19:35
  TRACK 25 AUDIO
    TITLE "0:"
    INDEX 01 00:20:49
  TRACK 26 AUDIO
    TITLE "10:cjc026_07446"
    INDEX 01 00:21:12
  TRACK 27 AUDIO
    TITLE "0:"
    INDEX 01 00:22:51
  TRACK 28 AUDIO
    TITLE "11:cjc026_07447"
    INDEX 01 00:23:11
  TRACK 29 AUDIO
    TITLE "0:"
    INDEX 01 00:24:60
  TRACK 30 AUDIO
    TITLE "12:cjc026_07448"
    INDEX 01 00:25:20
  TRACK 31 AUDIO
    TITLE "0:"
    INDEX 01 00:26:58
  TRACK 32 AUDIO
    TITLE "10:cjc026_07449"
    INDEX 01 00:27:18
  TRACK 33 AUDIO
    TITLE "0:"
    INDEX 01 00:28:33
  TRACK 34 AUDIO
    TITLE "11:cjc026_07450"
    INDEX 01 00:28:70
  TRACK 35 AUDIO
    TITLE "0:"
    INDEX 01 00:30:42
  TRACK 36 AUDIO
    TITLE "12:cjc026_07451"
    INDEX 01 00:31:02
  TRACK 37 AUDIO
    TITLE "0:"
    INDEX 01 00:32:16
  TRACK 38 AUDIO
    TITLE "10:cjc026_07452"
    INDEX 01 00:32:54
  TRACK 39 AUDIO
    TITLE "0:"
    INDEX 01 00:34:01
  TRACK 40 AUDIO
    TITLE "11:cjc026_07453"
    INDEX 01 00:34:36
  TRACK 41 AUDIO
    TITLE "0:"
    INDEX 01 00:35:66
  TRACK 42 AUDIO
    TITLE "12:cjc026_07454"
    INDEX 01 00:36:27
  TRACK 43 AUDIO
    TITLE "0:"
    INDEX 01 00:37:51
  TRACK 44 AUDIO
    TITLE "10:cjc026_07455"
    INDEX 01 00:38:11
  TRACK 45 AUDIO
    TITLE "0:"
    INDEX 01 00:39:34
  TRACK 46 AUDIO
    TITLE "11:cjc026_07456"
    INDEX 01 00:39:69
  TRACK 47 AUDIO
    TITLE "0:"
    INDEX 01 00:41:16
  TRACK 48 AUDIO
    TITLE "12:cjc026_07457"
    INDEX 01 00:41:51
  TRACK 49 AUDIO
    TITLE "0:"
    INDEX 01 00:42:73
  TRACK 50 AUDIO
    TITLE "10:cjc026_07458"
    INDEX 01 00:43:36
  TRACK 51 AUDIO
    TITLE "0:"
    INDEX 01 00:44:53
  TRACK 52 AUDIO
    TITLE "11:cjc026_07459"
    INDEX 01 00:45:16
  TRACK 53 AUDIO
    TITLE "0:"
    INDEX 01 00:46:46
  TRACK 54 AUDIO
    TITLE "12:cjc026_07460"
    INDEX 01 00:47:09
  TRACK 55 AUDIO
    TITLE "0:"
    INDEX 01 00:48:26
  TRACK 56 AUDIO
    TITLE "10:cjc026_07461"
    INDEX 01 00:48:63
  TRACK 57 AUDIO
    TITLE "0:"
    INDEX 01 00:50:05
  TRACK 58 AUDIO
    TITLE "11:cjc026_07462"
    INDEX 01 00:50:40
  TRACK 59 AUDIO
    TITLE "0:"
    INDEX 01 00:51:60
  TRACK 60 AUDIO
    TITLE "12:cjc026_07463"
    INDEX 01 00:52:23
  TRACK 61 AUDIO
    TITLE "0:"
    INDEX 01 00:53:39
  TRACK 62 AUDIO
    TITLE "10:cjc026_07464"
    INDEX 01 00:54:00
  TRACK 63 AUDIO
    TITLE "0:"
    INDEX 01 00:55:19
  TRACK 64 AUDIO
    TITLE "11:cjc026_07465"
    INDEX 01 00:55:54
  TRACK 65 AUDIO
    TITLE "0:"
    INDEX 01 00:58:32
  TRACK 66 AUDIO
    TITLE "12:cjc026_07466"
    INDEX 01 00:58:69
  TRACK 67 AUDIO
    TITLE "0:"
    INDEX 01 01:00:14
  TRACK 68 AUDIO
    TITLE "10:cjc026_07467"
    INDEX 01 01:00:49
  TRACK 69 AUDIO
    TITLE "0:"
    INDEX 01 01:01:63
  TRACK 70 AUDIO
    TITLE "11:cjc026_07468"
    INDEX 01 01:02:23
  TRACK 71 AUDIO
    TITLE "0:"
    INDEX 01 01:03:43
  TRACK 72 AUDIO
    TITLE "12:cjc026_07469"
    INDEX 01 01:04:03
  TRACK 73 AUDIO
    TITLE "0:"
    INDEX 01 01:05:17
  TRACK 74 AUDIO
    TITLE "10:cjc026_07470"
    INDEX 01 01:05:52
  TRACK 75 AUDIO
    TITLE "0:"
    INDEX 01 01:06:74
  TRACK 76 AUDIO
    TITLE "11:cjc026_07471"
    INDEX 01 01:07:32
  TRACK 77 AUDIO
    TITLE "0:"
    INDEX 01 01:08:57
  TRACK 78 AUDIO
    TITLE "12:cjc026_07472"
    INDEX 01 01:09:17
  TRACK 79 AUDIO
    TITLE "0:"
    INDEX 01 01:10:36
